<svg xmlns="http://www.w3.org/2000/svg" viewBox="0 0 20 20" width="20" height="20">
  <path fill-rule="evenodd" fill="#fbcc5c" d="m375 950c-207.1 0-375-167.9-375-375 0-207.1 167.9-375 375-375 207.1 0 375 167.9 375 375 0 207.1-167.9 375-375 375zm0-100c151.9 0 275-123.1 275-275 0-151.9-123.1-275-275-275-151.9 0-275 123.1-275 275 0 151.9 123.1 275 275 275z"/>
  <path fill-rule="evenodd" fill="#35d07f" d="m575 750c-207.1 0-375-167.9-375-375 0-207.1 167.9-375 375-375 207.1 0 375 167.9 375 375 0 207.1-167.9 375-375 375zm0-100c151.9 0 275-123.1 275-275 0-151.9-123.1-275-275-275-151.9 0-275 123.1-275 275 0 151.9 123.1 275 275 275z"/>
  <path fill="#5ea33b" d="m587.4 750c26-31.5 44.6-68.4 54.5-108.1 39.6-9.9 76.5-28.5 108.1-54.5-1.4 45.9-11.3 91.1-29.2 133.5-42.3 17.8-87.5 27.7-133.4 29.1zm-279.3-441.9c-39.6 9.9-76.5 28.5-108.1 54.5 1.4-45.9 11.3-91.1 29.2-133.4 42.3-17.8 87.6-27.7 133.4-29.2-26 31.5-44.6 68.4-54.5 108.1z"/>
</svg>