<svg xmlns="http://www.w3.org/2000/svg" width="19" height="21" viewBox="0 0 21 23" fill="none">
  <path stroke="currentColor" stroke-width="1.5" d="m19.3 9.5c0 0-0.5 6.7-0.8 9.5-0.2 1.4-1 2.2-2.4 2.2q-3.9 0.1-7.8 0c-1.3 0-2.2-0.8-2.3-2.2-0.3-2.8-0.9-9.5-0.9-9.5"/>
  <path stroke="currentColor" stroke-width="1.5" d="m20.7 6.2h-16.9"/>
  <path stroke="currentColor" stroke-width="1.5" d="m7 6.2c0.8 0 1.5-0.5 1.6-1.3l0.3-1.2c0.1-0.6 0.6-0.9 1.2-0.9h4.2c0.6 0 1.1 0.3 1.3 0.9l0.2 1.2c0.2 0.8 0.9 1.3 1.6 1.3"/>
</svg>