<svg xmlns="http://www.w3.org/2000/svg" width="24" height="24" viewBox="0 0 24 24">
  <defs>
    <style>.a{fill:#fff;}.b{fill:none;opacity:0;}</style>
  </defs>
  <g transform="translate(-556 -188)">
    <path class="a" d="M2-.75A2.75,2.75,0,1,1-.75,2,2.753,2.753,0,0,1,2-.75Zm0,4A1.25,1.25,0,1,0,.75,2,1.251,1.251,0,0,0,2,3.25Z" transform="translate(559 198)"/>
    <path class="a" d="M2-.75A2.75,2.75,0,1,1-.75,2,2.753,2.753,0,0,1,2-.75Zm0,4A1.25,1.25,0,1,0,.75,2,1.251,1.251,0,0,0,2,3.25Z" transform="translate(573 198)"/>
    <path class="a" d="M2-.75A2.75,2.75,0,1,1-.75,2,2.753,2.753,0,0,1,2-.75Zm0,4A1.25,1.25,0,1,0,.75,2,1.251,1.251,0,0,0,2,3.25Z" transform="translate(566 198)"/>
    <path class="b" d="M0,0H24V24H0Z" transform="translate(556 188)"/>
  </g>
</svg>
