<svg xmlns="http://www.w3.org/2000/svg" viewBox="0 0 16 17" width="16" height="17">
  <path fill="#fff" d="m11.6 5.9c-0.3-0.2-0.6-0.2-0.9 0l-2.1 1.2-1.5 0.8-2.1 1.3c-0.2 0.1-0.6 0.1-0.9 0l-1.6-1q-0.1-0.1-0.2-0.2-0.1 0-0.1-0.1-0.1-0.1-0.1-0.3 0-0.1 0-0.2v-1.9c0-0.3 0.1-0.6 0.4-0.8l1.6-0.9c0.3-0.2 0.6-0.2 0.9 0l1.7 1q0.1 0 0.2 0.1 0 0.1 0.1 0.2 0.1 0.1 0.1 0.2 0 0.1 0 0.2v1.3l1.5-0.8v-1.3q0-0.1-0.1-0.3 0-0.1-0.1-0.2 0-0.1-0.1-0.2-0.1-0.1-0.2-0.1l-3-1.8c-0.3-0.1-0.6-0.1-0.9 0l-3.1 1.8q-0.1 0.1-0.2 0.2-0.1 0-0.2 0.1 0 0.1 0 0.3-0.1 0.1-0.1 0.2v3.5c0 0.3 0.2 0.6 0.5 0.8l3 1.8c0.3 0.1 0.6 0.1 0.9 0l2.1-1.2 1.5-0.8 2-1.3c0.3-0.1 0.6-0.1 0.9 0l1.7 1q0.1 0.1 0.1 0.1 0.1 0.1 0.2 0.2 0 0.1 0.1 0.3 0 0.1 0 0.2v1.9q0 0.1 0 0.2-0.1 0.1-0.1 0.2-0.1 0.1-0.2 0.2 0 0.1-0.1 0.2l-1.6 0.9c-0.3 0.2-0.6 0.2-0.9 0l-1.7-0.9q-0.1-0.1-0.1-0.2-0.1-0.1-0.2-0.2 0-0.1-0.1-0.2 0-0.1 0-0.2v-1.2l-1.4 0.8v1.2c0 0.3 0.1 0.6 0.4 0.8l3.1 1.8c0.2 0.2 0.6 0.2 0.9 0l3-1.8q0.1 0 0.2-0.1 0.1-0.1 0.2-0.2 0-0.1 0.1-0.2 0-0.1 0-0.3v-3.5q0-0.2 0-0.3-0.1-0.1-0.1-0.2-0.1-0.1-0.2-0.2-0.1-0.1-0.2-0.1z"/>
</svg>